<svg width="82" height="81" viewBox="0 0 82 81" fill="none" xmlns="http://www.w3.org/2000/svg">
<path fill-rule="evenodd" clip-rule="evenodd" d="M41.055 80.977L41.0913 80.9771H41.0788L41.055 80.977ZM41.3416 80.9771H41.3291L41.3654 80.977L41.3416 80.9771ZM40.9309 80.9764L40.9701 80.9765H40.9475L40.9309 80.9764ZM41.4729 80.9765H41.4503L41.4895 80.9764L41.4729 80.9765ZM40.8112 80.9754L40.8374 80.9756L40.8164 80.9754H40.8112ZM41.604 80.9754L41.583 80.9756L41.6092 80.9754H41.604ZM41.7351 80.974L41.7258 80.9742L41.7612 80.9737L41.7351 80.974ZM40.6591 80.9737L40.6945 80.9742L40.6853 80.974L40.6591 80.9737ZM41.866 80.9721L41.8446 80.9724L41.8882 80.9718L41.866 80.9721ZM40.5322 80.9718L40.5758 80.9724L40.5544 80.9721L40.5322 80.9718ZM41.9968 80.9699L41.9679 80.9704L42.0082 80.9696L41.9968 80.9699ZM40.4122 80.9696L40.4525 80.9704L40.4236 80.9699L40.4122 80.9696ZM40.2635 80.9666L40.2992 80.9673L40.2928 80.9672L40.2635 80.9666ZM42.1275 80.9672L42.1212 80.9673L42.1569 80.9666L42.1275 80.9672ZM40.133 80.9632L40.182 80.9645L40.1622 80.964L40.133 80.9632ZM42.2582 80.964L42.2383 80.9645L42.2874 80.9632L42.2582 80.964ZM42.3888 80.9605L42.3569 80.9615L42.407 80.9601L42.3888 80.9605ZM40.0133 80.9601L40.0635 80.9615L40.0316 80.9605L40.0133 80.9601ZM39.8991 80.9566L39.9348 80.9577L39.9011 80.9566L39.8703 80.9556L39.8991 80.9566ZM42.5192 80.9566L42.4856 80.9577L42.5213 80.9566L42.55 80.9556L42.5192 80.9566ZM42.6496 80.9523L42.6318 80.953L42.6865 80.9511L42.6496 80.9523ZM39.7338 80.9511L39.7886 80.953L39.7708 80.9523L39.7338 80.9511ZM39.615 80.9466L39.6724 80.9487L39.6405 80.9476L39.615 80.9466ZM42.7799 80.9476L42.748 80.9487L42.8054 80.9466L42.7799 80.9476ZM39.4983 80.9419L39.5545 80.9443L39.5105 80.9425L39.4983 80.9419ZM42.9098 80.9425L42.8659 80.9443L42.9221 80.9419L42.9098 80.9425ZM39.3348 80.9348L39.3951 80.9375L39.3804 80.937L39.3348 80.9348ZM43.04 80.937L43.0252 80.9375L43.0855 80.9348L43.04 80.937ZM39.2175 80.9294L39.2801 80.9322L39.2506 80.931L39.2175 80.9294ZM43.1698 80.931L43.1403 80.9322L43.2028 80.9294L43.1698 80.931ZM39.102 80.9235L39.165 80.9267L39.1207 80.9246L39.102 80.9235ZM43.2996 80.9246L43.2554 80.9267L43.3184 80.9235L43.2996 80.9246ZM43.4295 80.9178L43.372 80.9208L43.423 80.9182L43.483 80.9148L43.4295 80.9178ZM38.9974 80.9182L39.0484 80.9208L38.9909 80.9178L38.9374 80.9148L38.9974 80.9182ZM43.559 80.9106L43.5336 80.912L43.598 80.9084L43.559 80.9106ZM38.8224 80.9084L38.8868 80.912L38.8614 80.9106L38.8224 80.9084ZM38.7078 80.9016L38.772 80.9053L38.7319 80.9031L38.7078 80.9016ZM43.6885 80.9031L43.6483 80.9053L43.7126 80.9016L43.6885 80.9031ZM38.5984 80.8948L38.6563 80.8984L38.6024 80.8951L38.5481 80.8916L38.5984 80.8948ZM43.818 80.8951L43.764 80.8984L43.822 80.8948L43.8723 80.8916L43.818 80.8951ZM43.9472 80.8867L43.9278 80.8879L43.9893 80.8838L43.9472 80.8867ZM38.4311 80.8838L38.4925 80.8879L38.4732 80.8867L38.4311 80.8838ZM38.3167 80.8759L38.377 80.8802L38.344 80.878L38.3167 80.8759ZM44.0764 80.878L44.0434 80.8802L44.1037 80.8759L44.0764 80.878ZM38.2026 80.8679L38.258 80.8718L38.215 80.8688L38.2026 80.8679ZM44.2054 80.8688L44.1624 80.8718L44.2178 80.8679L44.2054 80.8688ZM38.0491 80.8563L38.0977 80.86L38.0859 80.8592L38.0491 80.8563ZM44.3344 80.8592L44.3227 80.86L44.3713 80.8563L44.3344 80.8592ZM44.4632 80.8492L44.44 80.8509L44.4894 80.847L44.4632 80.8492ZM37.931 80.847L37.9804 80.8509L37.9572 80.8492L37.931 80.847ZM37.816 80.8377L37.8579 80.8411L37.8283 80.8388L37.816 80.8377ZM44.592 80.8388L44.5625 80.8411L44.6044 80.8377L44.592 80.8388ZM37.6893 80.8271L37.7018 80.8282L37.6998 80.828L37.6893 80.8271ZM44.7206 80.828L44.7185 80.8282L44.7311 80.8271L44.7206 80.828ZM44.8492 80.8168L44.8377 80.8177L44.8665 80.8152L44.8492 80.8168ZM37.5539 80.8152L37.5826 80.8177L37.5712 80.8168L37.5539 80.8152ZM37.4349 80.8044L37.4563 80.8065L37.443 80.8052L37.4349 80.8044ZM44.9774 80.8052L44.9641 80.8065L44.9855 80.8044L44.9774 80.8052ZM34.8617 80.485C15.4481 77.4442 0.579712 60.683 0.579712 40.4887C0.579712 18.1424 18.7857 0 41.2102 0C63.6347 0 81.8407 18.1424 81.8407 40.4887C81.8407 60.683 66.9723 77.4442 47.5587 80.485V52.1924H57.0259L58.8273 40.4887H47.5587V32.8937C47.5587 29.6918 49.1328 26.5707 54.18 26.5707H59.3034V16.6067C59.3034 16.6067 54.6538 15.8159 50.2084 15.8159C40.9275 15.8159 34.8617 21.421 34.8617 31.5685V40.4887H24.5453V52.1924H34.8617V80.485Z" fill="black"/>
</svg>
