<svg width="82" height="81" viewBox="0 0 82 81" fill="none" xmlns="http://www.w3.org/2000/svg">
<path fill-rule="evenodd" clip-rule="evenodd" d="M41.3695 80.9773C63.8091 80.9773 82 62.8499 82 40.4887C82 18.1274 63.8091 0 41.3695 0C18.9299 0 0.739014 18.1274 0.739014 40.4887C0.739014 62.8499 18.9299 80.9773 41.3695 80.9773Z" fill="black"/>
<path fill-rule="evenodd" clip-rule="evenodd" d="M41.3695 45.1603L64.8102 24.916H17.9289L41.3695 45.1603ZM35.0382 42.9193L41.3695 48.0981L47.6017 42.9193L64.8102 57.6184H17.9289L35.0382 42.9193ZM16.3661 56.0611V26.4733L33.556 41.2672L16.3661 56.0611ZM66.3729 56.0611V26.4733L49.1831 41.2672L66.3729 56.0611Z" fill="white"/>
</svg>
